<?xml version="1.0" encoding="UTF-8"?>
<svg id="_图层_1" data-name="图层 1" xmlns="http://www.w3.org/2000/svg" xmlns:xlink="http://www.w3.org/1999/xlink" version="1.1" viewBox="0 0 1271.5 378.9">
  <defs>
    <style>
      .cls-1 {
        fill: #343434;
      }

      .cls-1, .cls-2, .cls-3, .cls-4, .cls-5, .cls-6 {
        stroke-width: 0px;
      }

      .cls-2 {
        fill: url(#_名称未設定グラデーション);
      }

      .cls-3 {
        fill: url(#_名称未設定グラデーション_2);
      }

      .cls-4 {
        fill: url(#_名称未設定グラデーション_5);
      }

      .cls-5 {
        fill: url(#_名称未設定グラデーション_4);
      }

      .cls-6 {
        fill: url(#_名称未設定グラデーション_3);
      }
    </style>
    <linearGradient id="_名称未設定グラデーション" data-name="名称未設定グラデーション" x1="136.6" y1="99.7" x2="329" y2="192.5" gradientTransform="translate(0 340.7) scale(1 -1)" gradientUnits="userSpaceOnUse">
      <stop offset="0" stop-color="#0071ff"/>
      <stop offset=".3" stop-color="#0080ff"/>
      <stop offset="1" stop-color="#00a8ff"/>
    </linearGradient>
    <linearGradient id="_名称未設定グラデーション_2" data-name="名称未設定グラデーション 2" x1="260.6" y1="229.9" x2="314.5" y2="83.4" gradientTransform="translate(0 340.7) scale(1 -1)" gradientUnits="userSpaceOnUse">
      <stop offset="0" stop-color="#005aff"/>
      <stop offset=".2" stop-color="#0080ff"/>
      <stop offset="1" stop-color="#00a8ff" stop-opacity=".5"/>
    </linearGradient>
    <linearGradient id="_名称未設定グラデーション_3" data-name="名称未設定グラデーション 3" x1="7.4" y1="57" x2="279.6" y2="156.1" gradientTransform="translate(0 340.7) scale(1 -1)" gradientUnits="userSpaceOnUse">
      <stop offset="0" stop-color="#0071ff"/>
      <stop offset=".3" stop-color="#0080ff"/>
      <stop offset="1" stop-color="#00a8ff"/>
    </linearGradient>
    <linearGradient id="_名称未設定グラデーション_4" data-name="名称未設定グラデーション 4" x1="581.6" y1="2760.7" x2="583.4" y2="2849.7" gradientTransform="translate(847.3 2816.3) rotate(-27.3) scale(1 -1)" gradientUnits="userSpaceOnUse">
      <stop offset="0" stop-color="#0071ff"/>
      <stop offset=".3" stop-color="#0080ff"/>
      <stop offset="1" stop-color="#00a8ff"/>
    </linearGradient>
    <linearGradient id="_名称未設定グラデーション_5" data-name="名称未設定グラデーション 5" x1="5544.2" y1="-82.8" x2="5545.3" y2="-29.4" gradientTransform="translate(4960.4 3009.6) rotate(-147.2)" gradientUnits="userSpaceOnUse">
      <stop offset="0" stop-color="#0071ff"/>
      <stop offset=".3" stop-color="#0080ff"/>
      <stop offset="1" stop-color="#00a8ff"/>
    </linearGradient>
  </defs>
  <g>
    <path class="cls-1" d="M1107.7,235.8c11.6,0,22.2,5.3,29.2,13.6h22.3c-9.1-19.2-28.8-32.5-51.5-32.5s-56.8,25.3-56.8,56.8,25.5,56.8,56.8,56.8,42.2-13.3,51.4-32.5h-22.2c-7.1,8.3-17.6,13.6-29.2,13.6-20.8,0-37.8-16.9-37.8-37.8,0-21.1,17-38,37.8-38Z"/>
    <path class="cls-1" d="M1250.7,217v47.8h-55.1v-47.8s-4.3-1-10.4-1-10.3,1-10.4,1v113.6s4.4,1,10.4,1,10.4-1,10.4-1v-47.8h55.1v47.8s4.4,1,10.4,1,10.4-1,10.4-1v-113.6s-4.3-1-10.4-1-10.4,1-10.4,1Z"/>
    <polygon class="cls-1" points="514.6 235 514.6 312.3 514.6 329.4 514.6 330.4 601.6 330.4 601.6 312.3 535.5 312.3 535.5 282.4 595.9 282.4 595.9 264.3 535.5 264.3 535.5 235 601.6 235 601.6 216.8 514.6 216.8 514.6 235"/>
    <polygon class="cls-1" points="717.2 235 717.2 312.3 717.2 329.4 717.2 330.4 804.3 330.4 804.3 312.3 738.2 312.3 738.2 282.4 798.6 282.4 798.6 264.3 738.2 264.3 738.2 235 804.3 235 804.3 216.8 717.2 216.8 717.2 235"/>
    <path class="cls-1" d="M470.1,290.8c-6-4.7-11.2-5.6-11.1-6.8,0-1,2.9-.5,7.9-2,15.4-4.5,24.5-16,24.5-31.2,0-26.7-18.5-33.9-45.1-33.9h-49v113.5s4.1,1,9.9,1,9.9-1,9.9-1v-43.1h12.7c9.1,0,15.9,1.1,20.8,4.9,5.3,4,9.4,9.5,14.9,18.1,3.2,5,11.2,20.2,11.3,20.2,0,0,4.7,1,11.6,1s11.3-1.5,11.3-1.5c-12.8-20.8-19.8-31.5-29.6-39.2ZM443.1,270.4h-26v-36.9h29.5c17.1,0,25.1,3.4,25.1,17.3,0,14.8-11.5,19.6-28.6,19.6Z"/>
    <path class="cls-1" d="M1018.6,290.8c-6-4.7-11.2-5.6-11.1-6.8,0-1,2.9-.5,7.9-2,15.4-4.5,24.5-16,24.5-31.2,0-26.7-18.5-33.9-45.1-33.9h-49v113.5s4.1,1,9.9,1,9.9-1,9.9-1v-43.1h12.7c9.1,0,15.9,1.1,20.8,4.9,5.3,4,9.4,9.5,14.9,18.1,3.2,5,11.2,20.2,11.3,20.2,0,0,4.7,1,11.6,1s11.3-1.5,11.3-1.5c-12.8-20.8-19.8-31.5-29.6-39.2ZM991.6,270.4h-26v-36.9h29.5c17.1,0,25.1,3.4,25.1,17.3s-11.5,19.6-28.6,19.6Z"/>
    <path class="cls-1" d="M858.7,216.5c-16.6,35.2-30.9,73.4-42.9,113.9,0,0,4.1,1,10.2,1s9.9-1,10-1c3.7-13.2,9.8-31.1,9.8-31.1,0,0,15.7-1.8,26.2-1,12.4,1,18.7,2.8,24.6,5.4,2.6,1.1,3.9,2,4.6,4.1,1.4,4.3,3.8,12.4,6.8,22.5,0,0,4.2,1,10.2,1s10-1,10-1c-11.7-40.5-25.8-78.7-42.7-113.9h-26.8ZM874.2,283.9c-8.4,0-18.3,1.4-24.2,3.4,7-21.6,18.4-48.2,20.4-52.6.6-1.3,1.1-1.7,1.7-1.7s1.1.3,1.6,1.4c2.1,4.7,13.5,31.3,20.2,51.3-4.6-.7-11-1.8-19.7-1.8Z"/>
    <path class="cls-1" d="M435.2,66.5c-16.6,35.2-30.9,73.4-42.9,113.9,0,0,4.1,1,10.2,1s9.9-1,10-1c3.8-13.2,9.8-31.1,9.8-31.1,0,0,15.7-1.8,26.2-1,12.4,1,18.7,2.8,24.6,5.4,2.6,1.1,3.9,2,4.6,4.1,1.4,4.3,3.8,12.4,6.8,22.5,0,0,4.2,1,10.2,1s10-1,10-1c-11.7-40.5-25.8-78.7-42.7-113.9h-26.8ZM450.7,133.9c-8.4,0-18.3,1.4-24.2,3.4,7-21.6,18.4-48.2,20.4-52.6.6-1.3,1.1-1.7,1.7-1.7s1.1.3,1.6,1.4c2.1,4.7,13.5,31.3,20.2,51.3-4.5-.7-10.9-1.8-19.7-1.8Z"/>
    <path class="cls-1" d="M616.2,67.2s-4-1-9.7-1-9.7,1-9.7,1v82.1c-19.4-31.3-38.9-59.6-57.8-82.1,0,0-4-1-9.7-1s-9.7,1-9.7,1v113.2s4,1,9.7,1,9.6-1,9.7-1v-87.7c20.7,28.5,40.1,57.8,57.6,87.7,0,0,4.1,1,9.9,1s9.8-1,9.8-1v-113.2Z"/>
    <path class="cls-1" d="M672.1,180.4s4.3,1,10.5,1,10.5-1,10.5-1v-95.8h41v-18.3h-103v18.2h41v95.9Z"/>
    <path class="cls-1" d="M690.6,269.7c-9.1-6.3-20.7-9-31.1-10.4-10.2-1.4-20.2-3.8-21.9-8.6-1.1-3.1.6-10.2,7.7-13.5,9.7-4.6,33-3.6,40.3,9.9,0,0,4.2-1.1,9.3-3.9,5.2-2.8,8.3-5.7,8.3-5.7-13.2-24.1-48.1-27-66.4-18.4-16.6,7.8-22.3,25.9-18,38.2,5.5,15.8,22.3,18.9,37.2,21.7,8.7,1.6,17.7,3.3,23.3,7.2,6.1,4.2,5.6,12.6,1.6,18.4-2.6,3.8-11.1,7.4-21.9,6.7-12.8-.8-23.4-6.8-28.4-16.3,0,0-4.1,1-9.2,3.7-5.3,2.8-8.4,5.6-8.4,5.6,8.2,15.7,25,25.7,44.9,26.9,1.3,0,2.6,0,3.8,0,15.6,0,29-5.8,35.7-15.5,10.8-15.7,7.8-35.9-6.8-46.1Z"/>
  </g>
  <g>
    <path class="cls-2" d="M339.8,230.4c-.6,2.9-1.4,5.8-2.2,8.6-1.3,4.3-2.8,8.4-4.5,12.4-8.4,17.4-21.9,30.9-39.6,37.3-34.5,12.6-74.2-5.6-98.6-41.6-4.6-6.7-13-9.6-20.7-6.8l-22.8,8.3c-5.5,2-11.6-.6-13.9-5.9-1.1-2.5-2.1-5-3-7.6-21.9-60.3,5.1-125.5,60.5-145.6,27.2-9.9,56.2-7.1,81.2,5.5,1.5.8,3.1,1.6,4.6,2.4s3,1.7,4.5,2.6h0c1.5.9,2.9,1.9,4.3,2.9,5.7,3.9,11.2,8.4,16.2,13.4,1.3,1.2,2.5,2.5,3.7,3.8,2.4,2.6,4.8,5.4,7,8.3,1.1,1.4,2.2,2.9,3.2,4.4,1.1,1.5,2.1,3,3.1,4.6.6.9,1.1,1.8,1.7,2.7.7,1.2,1.5,2.5,2.2,3.7,1.1,1.9,2.1,3.8,3,5.8.4.8.8,1.7,1.2,2.6.4.8.8,1.7,1.1,2.5h0c.4.9.7,1.8,1.1,2.6h0c0,0,0,.2,0,.3,0,.2,0,.3.2.6.2.5.4,1,.6,1.5,0,.2.2.4.2.6-16.2-42.1-56.2-66.1-90.1-53.7-13,4.7-23.2,14.1-30.1,26.3h0c-11.4,20.1-13.5,47.7-3.8,74.6,2.2,6,4.8,11.6,7.9,16.8,10.7,18.3,26.1,31.6,42.9,37.9,13.1,4.9,27,5.5,40,.8,33.9-12.3,49.1-56.2,34.6-98.7,0,.2,0,.3.2.5h0c0,.4.2.7.3,1,0,0,0,.2,0,.3,0,.2.2.5.2.7,0,.2,0,.4.2.6h0c0,.3,0,.5.2.7,0,.2,0,.3.2.5.4,1.2.7,2.3,1,3.5.4,1.6.8,3.1,1.2,4.7.5,2.3,1,4.7,1.4,7,2.8,16,2.4,31.8-.8,46.6Z"/>
    <path class="cls-3" d="M301,263c-13,4.7-26.9,4.1-40-.8,6.5.8,13,0,19.1-2.1,28-10.2,39.5-49.3,25.6-87.4-13.9-38.1-47.8-60.7-75.8-50.5-6.2,2.2-11.5,5.9-16,10.6,6.9-12.2,17.1-21.5,30.1-26.3,34-12.4,74,11.6,90.1,53.7h0c.2.7.4,1.2.6,1.8.2.5.3.9.5,1.4,0,0,0,.3.2.4,0,0,0,.2,0,.3,14.6,42.7-.6,86.6-34.5,98.9Z"/>
    <path class="cls-6" d="M315.8,291.9c1.7-1.3,4,.5,3.2,2.5-19,48.8-66.1,83.6-121.4,84.5h-2.2c-41.2,0-78-18.8-102.3-48.2-1.6-1.9-4.2-2.7-6.6-1.8l-4.8,1.7c-2.4.9-3.2,3.9-1.5,5.9,5.8,6.7,11.3,12.1,18.3,18,3,2.6,2.1,7.4-1.6,8.8l-2.1.8c-3.3,1.2-7.1.8-10-1.3-9.8-6.8-18.9-14.7-26.9-23.5-4.7-5.2-9.1-10.6-13.2-16.4-2.4-3.4-6.7-4.7-10.5-3.3h0c-5.1,1.9-10.9-.3-13.5-5.1C7.3,290-.2,261.8,0,231.9.6,137.5,77.3,62.2,171.7,63.2c13.4.1,26.5,1.8,38.9,4.9,2.5.6,2.1,4.3-.5,4.4-1.8.1-3.5.2-5.3.3-9.3.7-18.6,2.6-27.8,5.8-.6.2-1.3.4-1.9.7-32.5,11.8-56.5,37.3-68.6,68.6-.8,2-1.5,4.1-2.2,6.2-9.3,28-9.4,60.2,1.9,91.2,4.6,12.7,10.8,24.3,18.3,34.7,3.8,5.4,10.8,7.5,17,5.2l28.8-10.5c5.4-2,11.5-.6,15.5,3.5,27.7,28.6,68.5,40.5,105.8,26.9,9-3.4,17-7.8,24.2-13.2h0Z"/>
    <path class="cls-5" d="M89.4,97.4l4.1,5.3c2.4,3.1,6.6,4,10.1,2.2,1.7-.9,3-2.3,3.7-4s.8-3.5.3-5.4h0c-3.3-8.6-7.7-21.7-12.2-36.4-5.1-16.8-11.4-42.2-11.4-42.2C81.1,7.3,72.6.4,62.6,0c-4-.2-8.1.7-11.9,2.6-8.5,4.4-13.6,13.4-13.2,22.3.2,4.6,2.2,9,5.2,12.5,24.8,29.4,46.7,60,46.7,60Z"/>
    <path class="cls-4" d="M260.8,75l-2.8,2.9c-1.6,1.7-4.2,2-6.1.7-1-.6-1.7-1.6-2-2.6s-.3-2.2,0-3.2h0c2.4-4.9,5.8-12.5,9.4-21,4-9.7,9.3-24.5,9.3-24.5,2.3-5.6,7.8-9.2,13.8-8.9,2.4.1,4.8.9,6.9,2.3,4.8,3.1,7.4,8.8,6.6,14.1-.4,2.7-1.8,5.2-3.8,7.2-16.6,15.9-31.4,33-31.4,33Z"/>
  </g>
</svg>